<svg width="110" height="34" viewBox="0 0 110 34" fill="none" xmlns="http://www.w3.org/2000/svg">
<path fill-rule="evenodd" clip-rule="evenodd" d="M103.248 10.9655C103.612 10.9655 103.833 11.2184 103.923 11.5588C104.116 12.2794 103.175 14.0357 99.8877 16.0533C99.9608 13.7148 101.375 10.9655 103.248 10.9655ZM93.185 10.9655C93.7338 10.9655 93.7694 11.5058 93.7957 11.6993C93.9343 12.7193 92.992 14.5265 89.9085 15.563C90.2382 13.4021 91.6582 10.9655 93.185 10.9655ZM79.8862 2.46114C80.9278 2.46114 80.0735 6.01035 76.7615 10.9812C77.5202 4.39367 78.6161 2.46114 79.8862 2.46114ZM68.4533 10.9655C68.7624 10.9655 68.8392 11.2107 68.8804 11.3497C69.0134 11.804 68.5357 13.5932 64.9614 16.0945C65.1656 13.708 66.6193 10.9655 68.4533 10.9655ZM53.6446 31.1132C53.2737 31.1132 53.0208 30.8771 53.0208 30.4125C53.0208 28.2751 56.3591 25.3545 56.3946 25.3452C55.9394 28.2189 54.7742 31.1132 53.6446 31.1132ZM108.743 17.0096C108.179 16.6359 107.419 16.7889 107.04 17.3507C106.978 17.4427 105.491 19.6109 102.898 19.6109C101.879 19.6109 101.107 19.2962 100.605 18.6742C100.572 18.633 100.54 18.5881 100.506 18.5439C100.519 18.5382 100.528 18.5319 100.54 18.5255C106.634 15.0201 106.598 12.0419 106.3 10.9243C105.942 9.58673 104.745 8.72256 103.248 8.72256C99.766 8.72256 97.4262 12.6108 97.4262 16.2421C97.4262 16.7037 97.4693 17.1456 97.5423 17.5688C96.3078 18.4817 94.3895 19.6109 92.7054 19.6109C91.7238 19.6109 90.9857 19.3205 90.5136 18.7436C90.345 18.539 90.2157 18.3099 90.1202 18.0725C94.7867 16.7191 96.5551 13.7405 96.231 11.3664C96.0193 9.80965 94.8578 8.72256 93.4079 8.72256C90.1614 8.72256 87.8141 12.1326 87.4338 15.5158C86.8138 15.4512 86.2499 15.2685 85.7516 14.9607C85.834 14.424 85.8752 13.8969 85.8752 13.396C85.8752 12.2933 85.6654 11.3327 85.2664 10.6165C84.7231 9.63693 83.8408 9.09741 82.7824 9.09741C82.2147 9.09741 81.7052 9.40988 81.4186 9.93404C80.8154 11.0367 81.2013 13.1768 82.3122 14.9122C82.5276 15.2481 82.7636 15.5581 83.0165 15.8418C82.4096 17.7992 81.1526 19.6409 79.5078 19.6409C78.7697 19.6409 78.2171 19.4123 77.7675 18.9234C77.1212 18.2196 76.7072 16.9675 76.5723 15.3843C81.1507 9.66391 83.3743 4.06827 82.1098 1.41826C81.679 0.517039 80.8734 0 79.8993 0C76.7334 9.36665e-06 74.8488 4.09772 74.137 12.5266C74.092 13.0423 74.0601 13.6646 74.0658 14.3418C72.3741 16.6314 69.6035 19.6109 67.1007 19.6109C66.387 19.6109 65.8643 19.3693 65.5084 18.8729C65.4765 18.8316 65.4484 18.7867 65.4203 18.7417C65.4484 18.7249 65.4784 18.708 65.5065 18.6893C71.6492 14.7184 71.5611 11.7469 71.2389 10.6531C70.8867 9.46275 69.8189 8.7226 68.4533 8.7226C64.879 8.7226 62.4773 12.8276 62.4773 16.662C62.4773 17.0089 62.4998 17.3452 62.541 17.6692C61.4133 18.481 60.4785 19.2044 59.5812 19.9051C59.7161 18.856 59.9146 17.5308 60.1376 15.5421V15.5413C60.19 15.1399 60.235 14.8107 60.2575 14.6492C60.4579 13.1961 58.075 12.8954 57.8165 14.5172C57.5505 16.1867 56.8311 19.6409 54.8716 19.6409C53.6877 19.6409 53.0657 18.3243 53.18 16.4098C53.3617 13.3988 54.9859 10.9436 56.9997 10.9436C57.691 10.9436 58.0507 11.683 58.0507 11.683C58.6857 12.8389 60.6602 11.8632 60.2425 10.6407C60.057 10.0946 59.392 8.73852 57.0971 8.73852C52.382 8.73852 50.9245 13.5116 50.7147 16.662C50.6791 17.1803 50.6904 17.6812 50.7372 18.1578C50.0797 18.959 49.2966 19.6409 48.536 19.6409C47.7886 19.6409 47.3165 18.8092 47.5956 16.8875C47.8616 15.055 48.049 13.5404 48.1745 12.6538C48.7458 8.64541 43.7309 8.75557 43.7309 8.75557C43.7309 8.75557 43.6766 6.41765 41.7452 6.41765C40.7561 6.41765 39.8794 7.1859 39.8794 8.63474C39.8794 9.97417 40.9771 10.6326 40.9771 10.6326L40.9828 10.6338C40.7392 12.7083 39.7651 19.6409 37.6033 19.6409C36.6329 19.6409 36.5673 18.5919 36.6516 17.8551C36.7697 16.8313 36.9551 15.0973 37.0169 14.6492C37.2174 13.1961 34.8326 12.8954 34.576 14.5172C34.31 16.1867 33.5906 19.6409 31.6311 19.6409C30.4472 19.6409 29.8233 18.1516 29.9189 16.3594C30.0819 13.2885 31.7454 10.9436 33.7592 10.9436C34.4505 10.9436 34.8102 11.683 34.8102 11.683C35.3347 12.828 37.4085 12.0047 37.0019 10.6407C36.824 10.0384 36.1515 8.73852 33.8566 8.73852C29.1396 8.73852 27.6821 13.5116 27.4742 16.662C27.4405 17.1494 27.4498 17.6205 27.4892 18.0711C26.8148 18.9871 26.0018 19.6409 25.2356 19.6409C24.5368 19.6409 24.001 19.2812 24.1303 17.6957C24.1902 16.9551 25.052 11.893 24.9958 10.9697C24.9002 9.43427 24.2034 8.75744 22.4911 8.75744C20.6909 8.75744 19.3308 9.68287 18.7598 10.2741C18.7598 10.2741 19.6118 3.88622 19.7729 2.65975C19.9434 1.37448 17.4723 1.3615 17.311 2.64908C17.2411 3.20733 16.5815 8.2685 15.9703 12.9408C14.593 15.9917 11.8017 20.6937 7.66954 20.6937C-0.159105 20.6937 3.45361 3.62958 10.7766 3.62958C12.493 3.62958 11.7264 6.37063 10.5754 8.0422C9.75362 9.23608 11.8246 10.6092 12.9684 8.67876C16.1297 3.34427 13.4656 1.34955 10.9615 1.34955C0.0780578 1.34955 -3.9614 23.0521 7.37561 23.0521C11.108 23.0521 13.6057 20.9539 15.2151 18.6984C15.0465 19.9798 14.9309 20.8528 14.9073 21.0158C14.7153 22.3552 17.2179 22.2447 17.3496 21.1263C17.4335 20.4125 17.8052 17.4177 18.1235 15.1328C18.3054 13.8265 19.9022 11.4228 21.7306 11.4228C22.1633 11.4228 22.4443 11.8511 22.39 12.218C22.3244 12.6442 21.547 18.3257 21.5994 19.1724C21.7474 21.5422 23.4409 22.0929 25.0557 22.0929C26.3333 22.0929 27.3562 21.4878 28.216 20.5381C28.7874 21.4935 29.6716 22.0873 30.863 22.0873C33.5887 22.0873 34.5291 20.1241 34.5291 20.1241C34.5291 20.1241 34.8551 22.0686 37.2043 22.0686C41.9644 22.0686 43.0753 13.7647 43.3113 10.9961C43.5904 11.0069 45.2727 11.1102 45.5499 12.0519C45.816 12.9546 44.9711 15.8502 44.9018 18.8315C44.8662 20.4013 45.4432 22.0873 47.9291 22.0873C49.4465 22.0873 50.636 21.3904 51.4996 20.6018C52.071 21.5178 52.9402 22.0873 54.1036 22.0873C55.4449 22.0873 56.3534 21.6564 56.9304 21.2199C56.893 21.4766 56.8555 21.7295 56.8199 21.9843C56.818 22.0011 56.8161 22.0161 56.8143 22.033C56.8199 21.9843 50.5367 26.5196 50.5367 30.8058C50.5367 32.4768 51.3123 33.5727 53.2924 33.5727C57.232 33.5727 58.4497 28.3161 59.0304 23.9644C59.0585 23.7583 59.0847 23.5635 59.111 23.3762C59.7273 22.9097 60.3005 22.462 60.8569 22.0274C61.6756 21.3885 62.4661 20.7722 63.3765 20.1016C63.4215 20.1709 63.4646 20.2421 63.5114 20.3095C64.3413 21.4616 65.5815 22.0704 67.1007 22.0704C69.9519 22.0704 72.5896 19.8824 74.491 17.7429C74.7776 18.7996 75.2347 19.8018 75.9578 20.5868C76.8664 21.5759 78.0934 22.0985 79.5078 22.0985C82.2316 22.0985 84.1218 19.9255 85.0997 17.4C85.8453 17.746 86.6639 17.9452 87.5369 17.9915C87.728 18.8802 88.0895 19.667 88.614 20.3058C89.2753 21.1094 90.523 22.0704 92.7054 22.0704C94.8747 22.0704 97.0272 20.9109 98.4734 19.918C98.5446 20.021 98.6139 20.1222 98.6907 20.2177C99.3726 21.0626 100.656 22.0704 102.898 22.0704C106.84 22.0704 109.003 18.8427 109.093 18.7041C109.464 18.1398 109.307 17.3837 108.743 17.0096Z" fill="black"/>
</svg>
