<svg width="127" height="30" viewBox="0 0 127 30" fill="none" xmlns="http://www.w3.org/2000/svg">
<path d="M126.086 10.2246L125.716 14.5982H123.924C121.068 14.5982 119.586 16.8807 119.586 19.0794V28.9619H114.543V10.2246H119.335L119.442 12.5668C120.446 10.9655 122.203 10.2246 124.378 10.2246H126.086Z" fill="#002856"/>
<path d="M91.0384 28.9621H85.9836V19.0557C85.9836 16.9765 85.7924 14.3714 82.8886 14.3714C80.0804 14.3714 78.9571 16.4029 78.9571 18.757V28.9502H73.9023V10.2248H78.5986L78.7062 12.6148C79.71 11.0135 81.5861 9.75879 84.3465 9.75879C89.449 9.75879 91.0503 13.4035 91.0503 17.1796L91.0384 28.9621Z" fill="#002856"/>
<path d="M71.6916 24.5888L71.3331 28.8549C70.162 29.1656 68.9551 29.321 67.7362 29.2971C62.9682 29.2971 61.582 27.1103 61.582 22.7127V4.94336H66.6488V10.2252H71.6796L71.3331 14.5988H66.6488V22.3184C66.6488 24.087 67.1267 25.031 68.9431 25.031C69.8752 25.0429 70.8073 24.8876 71.6916 24.5888Z" fill="#002856"/>
<path d="M59.9332 10.2256L59.5388 14.5992H58.1646C55.3205 14.5992 53.8985 16.8816 53.8985 19.0804V28.9629H48.8438V10.2256H53.6237L53.7193 12.5677C54.735 10.9784 56.4916 10.2256 58.6665 10.2256H59.9332Z" fill="#002856"/>
<path d="M26.0074 26.8831C22.5778 28.7234 19.1482 29.7749 14.6192 29.6435C6.23043 29.3925 0.171875 24.1705 0.171875 15.3754C0.171875 6.61621 6.29018 1.01175 14.6311 0.880305C18.8614 0.820556 22.6375 1.88409 25.6011 4.5011L22.0281 8.09799C20.1998 6.53256 17.511 5.62438 14.2846 5.76778C9.03863 6.00677 5.87193 9.83071 5.80024 15.0647C5.72854 20.7409 9.21788 24.6604 14.667 24.8038C17.2362 24.8636 19.0645 24.529 20.6539 23.812V18.0163H14.9896L15.372 13.2484H25.9954L26.0074 26.8831Z" fill="#002856"/>
<path d="M112.285 21.3867H98.4109C98.8053 23.7767 100.693 25.2226 103.036 25.2943C105.318 25.354 106.585 24.6729 108.258 22.976L111.556 25.4735C109.214 28.3654 106.393 29.417 103.179 29.417C97.5386 29.417 93.3203 25.4735 93.3203 19.5942C93.3203 13.7149 97.5266 9.77148 102.976 9.77148C108.987 9.77148 112.273 13.4162 112.273 19.8691L112.285 21.3867ZM107.218 17.4552C107.063 15.0891 105.294 13.5954 102.844 13.691C100.407 13.7866 98.7455 15.3879 98.4109 17.4552H107.218Z" fill="#002856"/>
<path d="M45.6523 16.69V28.9625H41.183L41.0755 27.1103C39.7132 28.8071 37.4906 29.4166 35.1962 29.4166C31.7546 29.4166 28.5043 27.7197 28.4326 23.7643C28.337 17.5504 35.4352 17.1083 39.8925 17.1083H40.7887V16.8573C40.7887 14.802 39.4264 13.6906 36.8692 13.6906C35.005 13.7026 33.2245 14.4076 31.8622 15.6862L28.9464 12.7227C31.2886 10.7749 34.2522 9.72329 37.2874 9.77109C43.095 9.77109 45.6523 12.4478 45.6523 16.69ZM40.7887 20.7888H40.0837C37.6937 20.7888 33.4874 20.9083 33.4993 23.4178C33.5232 26.9549 40.7887 25.8197 40.7887 21.5656V20.7888Z" fill="#002856"/>
<path d="M122.143 26.7755C122.179 25.6402 123.123 24.7559 124.246 24.7918C125.381 24.8276 126.266 25.7717 126.23 26.895C126.194 28.0063 125.286 28.8786 124.186 28.8786C123.051 28.8786 122.143 27.9585 122.143 26.8352C122.143 26.8233 122.143 26.7994 122.143 26.7755ZM124.186 29.3088C125.572 29.2849 126.696 28.1497 126.672 26.7516C126.648 25.3654 125.513 24.2421 124.115 24.266C122.74 24.2899 121.629 25.4012 121.629 26.7755C121.617 28.1616 122.74 29.2969 124.127 29.3088C124.15 29.3088 124.174 29.3088 124.186 29.3088ZM123.649 26.9786H124.162L124.927 28.2333H125.417L124.605 26.9547C125.035 26.9069 125.345 26.6679 125.345 26.1541C125.345 25.5805 125.011 25.3295 124.318 25.3295H123.218V28.2333H123.66L123.649 26.9786ZM123.649 26.6082V25.7119H124.246C124.557 25.7119 124.879 25.7717 124.879 26.1421C124.879 26.5843 124.545 26.6201 124.174 26.6201L123.649 26.6082Z" fill="#002856"/>
</svg>
